<?xml version="1.0" standalone="no"?>
<!DOCTYPE svg PUBLIC "-//W3C//DTD SVG 20010904//EN"
 "http://www.w3.org/TR/2001/REC-SVG-20010904/DTD/svg10.dtd">
<svg version="1.0"
    xmlns="http://www.w3.org/2000/svg" width="512.000000pt" height="512.000000pt" viewBox="0 0 512.000000 512.000000" preserveAspectRatio="xMidYMid meet">
    <metadata>
Created by potrace 1.16, written by Peter Selinger 2001-2019
    </metadata>
    <g transform="translate(0.000000,512.000000) scale(0.100000,-0.100000)" fill="#FFF" stroke="none">
        <path d="M2360 4899 c-400 -34 -779 -166 -1103 -383 -472 -314 -801 -765 -957
-1311 -230 -800 -12 -1679 564 -2274 313 -323 694 -543 1126 -651 211 -53 314
-65 565 -65 311 0 500 30 768 121 489 168 904 488 1193 920 399 597 502 1356
277 2043 -29 87 -47 124 -76 157 -100 113 -289 87 -352 -49 -30 -64 -31 -116
-5 -193 38 -109 79 -278 96 -394 24 -169 15 -470 -20 -635 -80 -379 -255 -705
-525 -976 -269 -270 -591 -443 -978 -526 -120 -26 -143 -28 -373 -27 -227 0
-254 2 -370 26 -228 49 -416 121 -602 231 -469 277 -788 727 -906 1277 -24
116 -26 142 -26 370 0 228 2 254 26 370 80 372 241 682 490 945 617 652 1598
783 2379 318 l80 -47 -104 -36 c-57 -19 -115 -43 -130 -52 -69 -46 -110 -154
-88 -233 27 -98 95 -156 191 -163 53 -4 87 5 362 97 166 56 317 110 335 121
48 29 86 92 91 153 5 70 -110 712 -138 767 -75 147 -305 145 -382 -3 -22 -43
-29 -124 -16 -182 l7 -30 -152 75 c-389 193 -820 276 -1247 239z"/>
        <path d="M1855 3410 c-16 -5 -163 -90 -325 -187 -330 -199 -346 -214 -357
-315 -13 -124 58 -220 180 -243 58 -11 124 11 237 80 l105 64 5 -582 5 -582
25 -45 c14 -24 45 -58 68 -75 40 -27 51 -30 122 -30 71 0 82 3 122 30 23 17
54 51 68 75 l25 45 0 810 c0 735 -2 813 -17 840 -21 39 -65 83 -101 102 -36
18 -122 25 -162 13z"/>
        <path d="M2981 3409 c-206 -34 -404 -197 -518 -424 -211 -420 -140 -988 163
-1290 90 -90 158 -134 266 -173 64 -23 88 -27 198 -27 106 0 136 4 195 24 275
93 477 359 540 713 26 144 17 397 -18 529 -118 449 -451 710 -826 648z m198
-455 c88 -44 161 -152 203 -301 28 -101 31 -285 5 -383 -68 -255 -231 -395
-375 -321 -49 25 -124 106 -155 167 -56 111 -72 187 -72 344 1 132 3 152 29
225 47 138 117 234 199 274 56 28 102 26 166 -5z"/>
    </g>
</svg>
