<?xml version="1.0" standalone="no"?>
<!DOCTYPE svg PUBLIC "-//W3C//DTD SVG 20010904//EN"
 "http://www.w3.org/TR/2001/REC-SVG-20010904/DTD/svg10.dtd">
<svg version="1.0"
    xmlns="http://www.w3.org/2000/svg" width="512.000000pt" height="512.000000pt" viewBox="0 0 512.000000 512.000000" preserveAspectRatio="xMidYMid meet">
    <metadata>
Created by potrace 1.16, written by Peter Selinger 2001-2019
    </metadata>
    <g transform="translate(0.000000,512.000000) scale(0.100000,-0.100000)" fill="#FFF" stroke="none">
        <path d="M1085 4898 c-48 -17 -94 -56 -115 -98 -28 -55 -143 -697 -138 -767 5
-61 43 -124 91 -153 18 -11 169 -65 335 -121 275 -92 309 -101 362 -97 96 7
164 65 191 163 23 82 -20 190 -95 236 -17 10 -75 34 -129 51 l-97 32 52 34
c77 49 240 130 341 169 391 151 855 163 1265 32 659 -211 1140 -752 1290
-1449 24 -116 26 -142 26 -370 0 -228 -2 -254 -26 -370 -84 -391 -255 -709
-527 -981 -271 -271 -591 -443 -978 -526 -120 -26 -143 -28 -373 -27 -227 0
-254 2 -370 26 -696 149 -1226 620 -1449 1288 -60 180 -82 314 -88 535 -7 267
20 456 102 694 41 122 30 189 -44 262 -70 71 -160 84 -253 38 -59 -30 -91 -79
-131 -201 -139 -424 -154 -901 -42 -1330 217 -829 860 -1471 1689 -1683 219
-56 332 -70 586 -70 247 0 353 12 565 64 576 141 1078 497 1406 998 700 1070
401 2531 -664 3237 -566 375 -1248 486 -1920 311 -144 -37 -285 -91 -444 -170
l-142 -71 7 31 c13 59 6 139 -16 182 -47 91 -166 136 -267 101z"/>
        <path d="M1855 3410 c-16 -5 -163 -90 -325 -187 -330 -199 -346 -214 -357
-315 -13 -124 58 -220 180 -243 58 -11 124 11 237 80 l105 64 5 -582 5 -582
25 -45 c14 -24 45 -58 68 -75 40 -27 51 -30 122 -30 71 0 82 3 122 30 23 17
54 51 68 75 l25 45 0 810 c0 735 -2 813 -17 840 -21 39 -65 83 -101 102 -36
18 -122 25 -162 13z"/>
        <path d="M2981 3409 c-206 -34 -404 -197 -518 -424 -211 -420 -140 -988 163
-1290 90 -90 158 -134 266 -173 64 -23 88 -27 198 -27 106 0 136 4 195 24 275
93 477 359 540 713 26 144 17 397 -18 529 -118 449 -451 710 -826 648z m198
-455 c88 -44 161 -152 203 -301 28 -101 31 -285 5 -383 -68 -255 -231 -395
-375 -321 -49 25 -124 106 -155 167 -56 111 -72 187 -72 344 1 132 3 152 29
225 47 138 117 234 199 274 56 28 102 26 166 -5z"/>
    </g>
</svg>
