<?xml version="1.0" standalone="no"?>
<!DOCTYPE svg PUBLIC "-//W3C//DTD SVG 20010904//EN"
 "http://www.w3.org/TR/2001/REC-SVG-20010904/DTD/svg10.dtd">
<svg version="1.0"
    xmlns="http://www.w3.org/2000/svg" width="512.000000pt" height="512.000000pt" viewBox="0 0 512.000000 512.000000" preserveAspectRatio="xMidYMid meet">
    <metadata>
Created by potrace 1.16, written by Peter Selinger 2001-2019
    </metadata>
    <g transform="translate(0.000000,512.000000) scale(0.100000,-0.100000)" fill="#FFF" stroke="none">
        <path d="M3025 5106 c-17 -7 -43 -27 -57 -44 -80 -95 -53 -239 54 -291 44 -21
51 -21 754 -21 l709 0 -682 -682 c-615 -616 -683 -687 -693 -727 -37 -143 88
-268 231 -231 40 10 111 78 727 693 l682 682 0 -709 c0 -703 0 -710 21 -754
52 -107 196 -134 291 -54 61 51 58 2 58 1058 l0 966 -22 40 c-13 22 -41 51
-64 64 l-41 24 -969 0 c-783 -1 -975 -3 -999 -14z"/>
        <path d="M105 2182 c-46 -22 -79 -55 -94 -95 -8 -19 -11 -334 -11 -994 l0
-966 24 -41 c13 -23 42 -51 64 -64 l40 -22 966 0 c1056 0 1007 -3 1058 58 80
95 53 239 -54 291 -44 21 -51 21 -754 21 l-709 0 682 683 c615 615 683 686
693 726 37 143 -88 268 -231 231 -40 -10 -111 -78 -726 -693 l-683 -682 0 709
c0 703 0 710 -21 754 -42 87 -156 126 -244 84z"/>
    </g>
</svg>
