<?xml version="1.0" standalone="no"?>
<!DOCTYPE svg PUBLIC "-//W3C//DTD SVG 20010904//EN"
 "http://www.w3.org/TR/2001/REC-SVG-20010904/DTD/svg10.dtd">
<svg version="1.0"
    xmlns="http://www.w3.org/2000/svg" width="512.000000pt" height="512.000000pt" viewBox="0 0 512.000000 512.000000" preserveAspectRatio="xMidYMid meet">
    <metadata>
Created by potrace 1.16, written by Peter Selinger 2001-2019
    </metadata>
    <g transform="translate(0.000000,512.000000) scale(0.100000,-0.100000)" fill="#FFF" stroke="none">
        <path d="M2255 4462 c-45 -21 -89 -67 -629 -659 l-348 -383 -327 0 c-371 0
-402 -4 -464 -66 -69 -70 -68 -51 -65 -815 3 -752 0 -708 64 -773 62 -62 57
-61 441 -64 l351 -3 441 -484 c243 -266 455 -497 472 -515 47 -46 93 -62 171
-58 82 4 139 39 175 107 l23 44 0 1762 c0 1855 2 1780 -43 1847 -47 69 -179
99 -262 60z"/>
        <path d="M2980 3840 l0 -220 48 0 c62 0 190 -23 276 -50 472 -148 791 -630
737 -1114 -16 -138 -42 -231 -101 -352 -168 -346 -502 -575 -877 -601 l-83 -6
0 -218 c0 -202 1 -219 18 -219 9 0 67 5 127 10 691 65 1241 587 1344 1277 15
100 13 341 -3 443 -54 327 -192 595 -427 831 -263 264 -584 406 -976 434 l-83
5 0 -220z"/>
        <path d="M2980 2986 l0 -214 51 -12 c60 -15 112 -56 141 -113 31 -61 23 -153
-18 -204 -41 -50 -86 -80 -134 -88 l-40 -7 0 -217 0 -217 78 8 c246 23 459
195 543 438 19 54 23 87 23 195 1 117 -2 138 -27 210 -15 44 -45 108 -67 142
-51 78 -161 180 -237 221 -74 39 -192 72 -260 72 l-53 0 0 -214z"/>
    </g>
</svg>
