<?xml version="1.0" standalone="no"?>
<!DOCTYPE svg PUBLIC "-//W3C//DTD SVG 20010904//EN"
 "http://www.w3.org/TR/2001/REC-SVG-20010904/DTD/svg10.dtd">
<svg version="1.0"
    xmlns="http://www.w3.org/2000/svg" width="512.000000pt" height="512.000000pt" viewBox="0 0 512.000000 512.000000" preserveAspectRatio="xMidYMid meet">
    <metadata>
Created by potrace 1.16, written by Peter Selinger 2001-2019
    </metadata>
    <g transform="translate(0.000000,512.000000) scale(0.100000,-0.100000)" fill="#FFF" stroke="none">
        <path d="M2686 4251 c-21 -11 -45 -26 -54 -33 -8 -7 -222 -239 -475 -515
l-459 -503 -341 0 c-377 0 -389 -2 -449 -66 -60 -64 -58 -40 -58 -789 0 -749
-2 -725 58 -789 60 -64 72 -66 449 -66 l342 0 468 -512 c306 -335 481 -518
505 -531 110 -56 236 -16 291 92 l27 55 0 1748 c0 1601 -1 1751 -17 1790 -9
24 -25 54 -37 66 -56 63 -179 89 -250 53z"/>
        <path d="M3410 2773 l0 -220 38 -6 c122 -16 204 -161 156 -275 -28 -68 -110
-131 -171 -132 l-23 0 0 -221 0 -222 67 7 c219 23 412 155 511 352 52 104 66
167 66 294 0 99 -4 126 -28 195 -36 105 -87 187 -162 260 -106 104 -242 168
-385 181 l-69 7 0 -220z"/>
    </g>
</svg>
