<?xml version="1.0" standalone="no"?>
<!DOCTYPE svg PUBLIC "-//W3C//DTD SVG 20010904//EN"
 "http://www.w3.org/TR/2001/REC-SVG-20010904/DTD/svg10.dtd">
<svg version="1.0"
    xmlns="http://www.w3.org/2000/svg" width="512.000000pt" height="512.000000pt" viewBox="0 0 512.000000 512.000000" preserveAspectRatio="xMidYMid meet">
    <metadata>
Created by potrace 1.16, written by Peter Selinger 2001-2019
    </metadata>
    <g transform="translate(0.000000,512.000000) scale(0.100000,-0.100000)" fill="#FFF" stroke="none">
        <path d="M1190 4464 c-46 -20 -77 -50 -103 -99 l-22 -40 -3 -1735 c-2 -1220 0
-1750 8 -1786 13 -60 56 -116 113 -147 41 -22 49 -22 417 -22 368 0 376 0 417
22 57 31 100 87 113 147 8 36 10 566 8 1786 l-3 1735 -22 40 c-27 50 -58 80
-105 100 -55 22 -765 22 -818 -1z"/>
        <path d="M2895 4464 c-47 -25 -86 -65 -106 -109 -18 -38 -19 -108 -19 -1795 0
-1678 1 -1757 19 -1795 23 -51 74 -101 120 -117 27 -10 131 -13 401 -13 l366
0 49 26 c30 15 62 42 80 68 l30 43 3 1777 2 1778 -23 44 c-13 24 -43 58 -66
74 l-43 30 -391 2 c-343 2 -396 1 -422 -13z"/>
    </g>
</svg>
