<?xml version="1.0" standalone="no"?>
<!DOCTYPE svg PUBLIC "-//W3C//DTD SVG 20010904//EN"
 "http://www.w3.org/TR/2001/REC-SVG-20010904/DTD/svg10.dtd">
<svg version="1.0" xmlns="http://www.w3.org/2000/svg"
 width="512.000000pt" height="512.000000pt" viewBox="0 0 512.000000 512.000000"
 preserveAspectRatio="xMidYMid meet">
<metadata>
Created by potrace 1.16, written by Peter Selinger 2001-2019
</metadata>
<g transform="translate(0.000000,512.000000) scale(0.100000,-0.100000)"
fill="#000000" stroke="none">
<path d="M2350 4688 c-240 -22 -495 -95 -725 -208 -194 -94 -320 -181 -528
-361 l-48 -42 -205 204 -204 204 0 -643 0 -642 642 0 643 0 -281 283 -282 282
72 63 c373 330 857 480 1343 417 376 -50 714 -216 983 -485 269 -269 435 -607
485 -983 50 -383 -36 -783 -238 -1107 -357 -571 -1005 -881 -1664 -795 -376
50 -714 216 -983 485 -218 218 -361 467 -443 770 -28 100 -57 298 -57 381 l0
49 -220 0 -220 0 0 -37 c0 -84 22 -275 46 -390 114 -572 473 -1082 981 -1397
676 -417 1550 -417 2226 0 431 267 763 683 917 1152 253 771 54 1608 -520
2182 -455 455 -1078 679 -1720 618z"/>
</g>
</svg>
