<?xml version="1.0" encoding="UTF-8"?>
<!DOCTYPE svg PUBLIC "-//W3C//DTD SVG 1.1//EN" "http://www.w3.org/Graphics/SVG/1.1/DTD/svg11.dtd">
<svg xmlns="http://www.w3.org/2000/svg" version="1.1" width="511px" height="512px" style="shape-rendering:geometricPrecision; text-rendering:geometricPrecision; image-rendering:optimizeQuality; fill-rule:evenodd; clip-rule:evenodd"
    xmlns:xlink="http://www.w3.org/1999/xlink">
    <g>
        <path style="opacity:0.746" fill="#FFF" d="M 229.5,-0.5 C 246.833,-0.5 264.167,-0.5 281.5,-0.5C 368.964,11.2894 435.131,54.9561 480,130.5C 495.412,158.857 505.579,188.857 510.5,220.5C 510.5,243.833 510.5,267.167 510.5,290.5C 494.457,382.688 444.457,449.188 360.5,490C 335.084,500.979 308.75,508.146 281.5,511.5C 264.167,511.5 246.833,511.5 229.5,511.5C 142.855,499.964 77.0212,456.964 32,382.5C 14.8173,351.454 3.98394,318.454 -0.5,283.5C -0.5,264.833 -0.5,246.167 -0.5,227.5C 11.8707,140.87 55.5374,75.3701 130.5,31C 161.659,14.3342 194.659,3.83416 229.5,-0.5 Z M 241.5,5.5 C 337.06,4.35888 411.894,42.6922 466,120.5C 513.023,198.846 518.023,279.846 481,363.5C 436.366,448.719 365.866,495.886 269.5,505C 184.338,507.321 114.505,476.154 60,411.5C 2.07116,333.753 -9.5955,249.42 25,158.5C 61.4697,78.0422 122.97,28.5422 209.5,10C 220.268,8.15624 230.935,6.65624 241.5,5.5 Z M 289.5,157.5 C 293.709,156.386 298.042,156.553 302.5,158C 298.192,159.226 293.858,159.059 289.5,157.5 Z M 229.5,164.5 C 229.435,161.514 230.602,159.18 233,157.5C 232.915,160.336 231.749,162.669 229.5,164.5 Z M 317.5,174.5 C 320.77,170.956 323.27,166.956 325,162.5C 327.314,164.369 327.647,166.369 326,168.5C 323.721,171.381 320.888,173.381 317.5,174.5 Z M 221.5,170.5 C 222.097,170.735 222.43,171.235 222.5,172C 221.922,173.811 221.422,175.645 221,177.5C 220.297,175.071 220.463,172.738 221.5,170.5 Z M 282.5,171.5 C 286.06,173.283 286.06,174.283 282.5,174.5C 282.5,173.5 282.5,172.5 282.5,171.5 Z M 304.5,171.5 C 305.043,171.56 305.376,171.893 305.5,172.5C 304.635,173.583 303.635,173.749 302.5,173C 303.416,172.722 304.082,172.222 304.5,171.5 Z M 277.5,174.5 C 277.783,173.711 278.283,173.044 279,172.5C 279.528,173.816 279.028,174.483 277.5,174.5 Z M 237.5,175.5 C 237.028,180.494 234.362,182.327 229.5,181C 232.249,179.255 234.916,177.422 237.5,175.5 Z M 274.5,326.5 C 274.022,323.722 275.022,321.722 277.5,320.5C 277.833,320.833 278.167,321.167 278.5,321.5C 277.388,323.419 276.054,325.086 274.5,326.5 Z M 168.5,321.5 C 168.205,325.077 169.205,328.243 171.5,331C 170.216,331.684 169.049,331.517 168,330.5C 167.195,327.304 167.362,324.304 168.5,321.5 Z M 149.5,334.5 C 151.843,337.33 154.843,339.163 158.5,340C 153.509,341.18 150.509,339.346 149.5,334.5 Z M 188.5,344.5 C 179.179,350.74 169.179,351.906 158.5,348C 168.54,347.088 178.54,345.922 188.5,344.5 Z"/>
    </g>
    <g>
        <path style="opacity:0.542" fill="#FFF" d="M 225.5,17.5 C 227.199,17.3398 228.866,17.5065 230.5,18C 231.833,19.3333 231.833,20.6667 230.5,22C 222.931,23.7902 215.264,24.4569 207.5,24C 213.152,20.5964 219.152,18.4297 225.5,17.5 Z"/>
    </g>
    <g>
        <path style="opacity:0.525" fill="#FFF" d="M 249.5,17.5 C 255.833,17.5 262.167,17.5 268.5,17.5C 268.5,18.8333 268.5,20.1667 268.5,21.5C 259.837,22.7893 251.17,22.7893 242.5,21.5C 242.5,20.5 242.5,19.5 242.5,18.5C 245.059,18.8016 247.393,18.4682 249.5,17.5 Z"/>
    </g>
    <g>
        <path style="opacity:0.559" fill="#FFF" d="M 275.5,18.5 C 284.115,19.8949 292.782,20.8949 301.5,21.5C 301.5,22.8333 301.5,24.1667 301.5,25.5C 292.694,26.9064 284.361,25.4064 276.5,21C 275.748,20.3292 275.414,19.4959 275.5,18.5 Z"/>
    </g>
    <g>
        <path style="opacity:0.563" fill="#FFF" d="M 199.5,23.5 C 201.635,23.147 202.968,23.9803 203.5,26C 202.142,27.6887 200.475,29.022 198.5,30C 191.642,32.4898 184.642,32.9898 177.5,31.5C 177.709,30.914 178.043,30.414 178.5,30C 185.882,28.7037 192.882,26.537 199.5,23.5 Z"/>
    </g>
    <g>
        <path style="opacity:0.549" fill="#FFF" d="M 306.5,23.5 C 314.396,23.5538 321.896,25.2204 329,28.5C 329.483,29.448 329.649,30.448 329.5,31.5C 321.592,30.8619 313.925,29.1952 306.5,26.5C 306.5,25.5 306.5,24.5 306.5,23.5 Z"/>
    </g>
    <g>
        <path style="opacity:0.519" fill="#FFF" d="M 168.5,32.5 C 171.389,32.999 172.056,34.499 170.5,37C 163.383,41.7949 155.883,44.9616 148,46.5C 147.493,45.0039 147.993,43.8373 149.5,43C 155.895,39.4721 162.229,35.9721 168.5,32.5 Z"/>
    </g>
    <g>
        <path style="opacity:0.526" fill="#FFF" d="M 338.5,34.5 C 346.067,35.7783 353.401,37.945 360.5,41C 364.62,42.3298 365.12,44.1632 362,46.5C 354.106,44.3043 346.606,41.1376 339.5,37C 338.748,36.3292 338.414,35.4959 338.5,34.5 Z"/>
    </g>
    <g>
        <path style="opacity:0.547" fill="#FFF" d="M 369.5,47.5 C 370.552,47.3505 371.552,47.5172 372.5,48C 378.166,52.1687 384.166,55.8353 390.5,59C 392.007,59.8373 392.507,61.0039 392,62.5C 387.853,63.7078 384.02,62.8744 380.5,60C 375.543,56.8819 371.876,52.7152 369.5,47.5 Z"/>
    </g>
    <g>
        <path style="opacity:0.527" fill="#FFF" d="M 134.5,48.5 C 138.33,49.1406 138.996,50.8073 136.5,53.5C 131.332,56.9185 125.998,60.0852 120.5,63C 119.365,63.7494 118.365,63.5827 117.5,62.5C 122.604,57.0546 128.27,52.388 134.5,48.5 Z"/>
    </g>
    <g>
        <path style="opacity:0.523" fill="#FFF" d="M 395.5,64.5 C 403.159,66.9748 409.659,71.3081 415,77.5C 415.483,78.448 415.649,79.448 415.5,80.5C 413.801,80.6602 412.134,80.4935 410.5,80C 404.603,75.6048 399.603,70.4381 395.5,64.5 Z"/>
    </g>
    <g>
        <path style="opacity:0.551" fill="#FFF" d="M 111.5,65.5 C 112.5,65.5 113.5,65.5 114.5,65.5C 113.956,69.7462 111.956,73.2462 108.5,76C 103.992,78.7545 99.3257,81.2545 94.5,83.5C 93.4173,82.635 93.2506,81.635 94,80.5C 100.32,76.0095 106.153,71.0095 111.5,65.5 Z"/>
    </g>
    <g>
        <path style="opacity:0.541" fill="#FFF" d="M 86.5,86.5 C 89.0764,86.7218 89.9098,88.0551 89,90.5C 84.3932,97.2755 78.8932,103.275 72.5,108.5C 71.432,106.813 71.5986,105.146 73,103.5C 77.3334,97.6705 81.8334,92.0038 86.5,86.5 Z"/>
    </g>
    <g>
        <path style="opacity:0.551" fill="#FFF" d="M 421.5,87.5 C 428.055,92.0459 434.055,97.3793 439.5,103.5C 440.246,104.736 440.579,106.07 440.5,107.5C 439.127,107.657 437.793,107.49 436.5,107C 430.424,101.595 425.091,95.5947 420.5,89C 421.056,88.6174 421.389,88.1174 421.5,87.5 Z"/>
    </g>
    <g>
        <path style="opacity:0.585" fill="#FFF" d="M 444.5,112.5 C 449.293,118.696 454.126,125.03 459,131.5C 459.684,132.784 459.517,133.951 458.5,135C 454.626,134.452 451.793,132.285 450,128.5C 446.728,123.63 444.894,118.297 444.5,112.5 Z"/>
    </g>
    <g>
        <path style="opacity:0.561" fill="#FFF" d="M 61.5,115.5 C 65.5362,115.572 66.3696,117.239 64,120.5C 60.6667,125.167 57.3333,129.833 54,134.5C 52.9505,135.517 51.7839,135.684 50.5,135C 53.2784,127.937 56.945,121.437 61.5,115.5 Z"/>
    </g>
    <g>
        <path style="opacity:0.543" fill="#FFF" d="M 460.5,138.5 C 462.371,138.859 463.871,139.859 465,141.5C 468.629,146.426 471.463,151.759 473.5,157.5C 472.714,160.975 471.214,161.308 469,158.5C 465.327,152.159 462.494,145.492 460.5,138.5 Z"/>
    </g>
    <g>
        <path style="opacity:0.57" fill="#FFF" d="M 47.5,139.5 C 49.7224,139.559 50.7224,140.725 50.5,143C 48.7896,151.535 44.4563,158.368 37.5,163.5C 36.4173,162.635 36.2506,161.635 37,160.5C 41.0561,153.721 44.5561,146.721 47.5,139.5 Z"/>
    </g>
    <g>
        <path style="opacity:0.879" fill="#FFF" d="M 236.5,147.5 C 261.179,147.361 285.846,147.861 310.5,149C 319.054,149.292 326.554,152.126 333,157.5C 334,159.5 335,161.5 336,163.5C 341.107,213.413 343.107,263.413 342,313.5C 333.388,353.22 310.222,365.72 272.5,351C 263.663,345.16 259.83,336.994 261,326.5C 262.211,323.241 264.044,320.408 266.5,318C 284.003,306.353 302.336,304.687 321.5,313C 324.011,315.179 326.178,317.679 328,320.5C 328.333,320.167 328.667,319.833 329,319.5C 330.492,311.914 331.325,304.247 331.5,296.5C 329.257,257.51 328.09,218.51 328,179.5C 323.06,181.694 317.894,183.194 312.5,184C 282.41,186.609 252.41,189.609 222.5,193C 225.279,209.681 227.113,226.514 228,243.5C 228.667,265.833 228.667,288.167 228,310.5C 227.481,321.739 223.648,331.573 216.5,340C 196.356,356.704 173.689,361.704 148.5,355C 131.867,347.096 128.034,334.929 137,318.5C 142.994,310.868 150.828,306.035 160.5,304C 167.499,301.666 174.666,300.166 182,299.5C 187.438,299.485 192.604,300.651 197.5,303C 202.687,307.189 207.52,311.689 212,316.5C 214.831,310.677 215.998,304.511 215.5,298C 213.291,255.516 211.457,213.016 210,170.5C 209.274,165.813 208.441,161.146 207.5,156.5C 207.688,153.275 209.355,151.441 212.5,151C 220.601,149.501 228.601,148.334 236.5,147.5 Z M 289.5,157.5 C 293.858,159.059 298.192,159.226 302.5,158C 298.042,156.553 293.709,156.386 289.5,157.5 Z M 229.5,164.5 C 231.749,162.669 232.915,160.336 233,157.5C 230.602,159.18 229.435,161.514 229.5,164.5 Z M 317.5,174.5 C 320.888,173.381 323.721,171.381 326,168.5C 327.647,166.369 327.314,164.369 325,162.5C 323.27,166.956 320.77,170.956 317.5,174.5 Z M 221.5,170.5 C 220.463,172.738 220.297,175.071 221,177.5C 221.422,175.645 221.922,173.811 222.5,172C 222.43,171.235 222.097,170.735 221.5,170.5 Z M 282.5,171.5 C 282.5,172.5 282.5,173.5 282.5,174.5C 286.06,174.283 286.06,173.283 282.5,171.5 Z M 304.5,171.5 C 304.082,172.222 303.416,172.722 302.5,173C 303.635,173.749 304.635,173.583 305.5,172.5C 305.376,171.893 305.043,171.56 304.5,171.5 Z M 277.5,174.5 C 279.028,174.483 279.528,173.816 279,172.5C 278.283,173.044 277.783,173.711 277.5,174.5 Z M 237.5,175.5 C 234.916,177.422 232.249,179.255 229.5,181C 234.362,182.327 237.028,180.494 237.5,175.5 Z M 274.5,326.5 C 276.054,325.086 277.388,323.419 278.5,321.5C 278.167,321.167 277.833,320.833 277.5,320.5C 275.022,321.722 274.022,323.722 274.5,326.5 Z M 168.5,321.5 C 167.362,324.304 167.195,327.304 168,330.5C 169.049,331.517 170.216,331.684 171.5,331C 169.205,328.243 168.205,325.077 168.5,321.5 Z M 149.5,334.5 C 150.509,339.346 153.509,341.18 158.5,340C 154.843,339.163 151.843,337.33 149.5,334.5 Z M 188.5,344.5 C 178.54,345.922 168.54,347.088 158.5,348C 169.179,351.906 179.179,350.74 188.5,344.5 Z"/>
    </g>
    <g>
        <path style="opacity:0.548" fill="#FFF" d="M 32.5,169.5 C 34.3588,169.461 35.6921,170.294 36.5,172C 34.4739,179.913 32.1405,187.746 29.5,195.5C 28.5,195.5 27.5,195.5 26.5,195.5C 27.8702,186.686 29.8702,178.019 32.5,169.5 Z"/>
    </g>
    <g>
        <path style="opacity:0.541" fill="#FFF" d="M 474.5,169.5 C 475.496,169.414 476.329,169.748 477,170.5C 480.943,178.496 483.776,186.83 485.5,195.5C 482.405,195.374 480.572,193.707 480,190.5C 477.238,183.72 475.405,176.72 474.5,169.5 Z"/>
    </g>
    <g>
        <path style="opacity:0.592" fill="#FFF" d="M 485.5,201.5 C 486.931,201.881 487.764,202.881 488,204.5C 489.106,212.192 490.272,219.859 491.5,227.5C 490.178,227.67 489.011,227.337 488,226.5C 484.426,218.471 483.592,210.138 485.5,201.5 Z"/>
    </g>
    <g>
        <path style="opacity:0.565" fill="#FFF" d="M 21.5,205.5 C 22.8333,205.5 24.1667,205.5 25.5,205.5C 25.2421,213.525 23.5754,221.192 20.5,228.5C 19.0749,220.733 19.4082,213.066 21.5,205.5 Z"/>
    </g>
    <g>
        <path style="opacity:0.529" fill="#FFF" d="M 489.5,232.5 C 490.5,232.5 491.5,232.5 492.5,232.5C 494.094,240.409 494.761,248.409 494.5,256.5C 492.089,256.863 490.589,255.863 490,253.5C 489.5,246.508 489.334,239.508 489.5,232.5 Z"/>
    </g>
    <g>
        <path style="opacity:0.551" fill="#FFF" d="M 18.5,233.5 C 19.675,233.281 20.675,233.614 21.5,234.5C 24.5867,243.632 23.5867,252.299 18.5,260.5C 18.3163,251.476 18.3163,242.476 18.5,233.5 Z"/>
    </g>
    <g>
        <path style="opacity:0.561" fill="#FFF" d="M 18.5,266.5 C 20.1316,266.825 21.1316,267.825 21.5,269.5C 23.5547,277.429 23.888,285.429 22.5,293.5C 20.0461,287.81 18.5461,281.81 18,275.5C 17.2642,272.408 17.4309,269.408 18.5,266.5 Z"/>
    </g>
    <g>
        <path style="opacity:0.54" fill="#FFF" d="M 489.5,266.5 C 490.5,266.5 491.5,266.5 492.5,266.5C 492.44,275.513 492.107,284.513 491.5,293.5C 490.167,293.5 488.833,293.5 487.5,293.5C 487.23,284.418 487.897,275.418 489.5,266.5 Z"/>
    </g>
    <g>
        <path style="opacity:0.571" fill="#FFF" d="M 486.5,300.5 C 487.675,300.281 488.675,300.614 489.5,301.5C 486.61,309.282 484.61,317.282 483.5,325.5C 482.167,325.5 480.833,325.5 479.5,325.5C 479.203,316.395 481.537,308.062 486.5,300.5 Z"/>
    </g>
    <g>
        <path style="opacity:0.536" fill="#FFF" d="M 22.5,303.5 C 25.3882,303.22 26.8882,304.553 27,307.5C 28.9448,313.81 29.7781,320.143 29.5,326.5C 24.2121,319.67 21.8787,312.003 22.5,303.5 Z"/>
    </g>
    <g>
        <path style="opacity:0.562" fill="#FFF" d="M 478.5,330.5 C 479.649,330.791 480.316,331.624 480.5,333C 479.602,339.528 477.602,345.695 474.5,351.5C 473.311,352.429 471.978,352.762 470.5,352.5C 472.028,344.773 474.694,337.44 478.5,330.5 Z"/>
    </g>
    <g>
        <path style="opacity:0.56" fill="#FFF" d="M 30.5,331.5 C 31.8734,331.343 33.2068,331.51 34.5,332C 39.883,339.365 41.883,347.532 40.5,356.5C 37.438,349.492 34.2713,342.492 31,335.5C 30.51,334.207 30.3433,332.873 30.5,331.5 Z"/>
    </g>
    <g>
        <path style="opacity:0.549" fill="#FFF" d="M 43.5,361.5 C 44.552,361.351 45.552,361.517 46.5,362C 51.5893,368.839 55.9226,376.172 59.5,384C 57.0966,384.63 55.2633,383.797 54,381.5C 49.9694,375.634 46.136,369.634 42.5,363.5C 42.8627,362.817 43.1961,362.15 43.5,361.5 Z"/>
    </g>
    <g>
        <path style="opacity:0.55" fill="#FFF" d="M 463.5,361.5 C 464.5,361.5 465.5,361.5 466.5,361.5C 464,370.165 460.167,378.165 455,385.5C 452.812,384.941 452.146,383.607 453,381.5C 456.256,374.653 459.756,367.987 463.5,361.5 Z"/>
    </g>
    <g>
        <path style="opacity:0.568" fill="#FFF" d="M 447.5,390.5 C 450.998,390.565 451.498,391.899 449,394.5C 444.851,398.804 441.184,403.47 438,408.5C 436.736,410.607 434.903,411.607 432.5,411.5C 432.249,407.669 433.416,404.336 436,401.5C 439.729,397.602 443.562,393.935 447.5,390.5 Z"/>
    </g>
    <g>
        <path style="opacity:0.538" fill="#FFF" d="M 62.5,393.5 C 66.2517,394.069 69.085,396.069 71,399.5C 81.4302,415.655 79.7635,416.655 66,402.5C 63.7132,399.928 62.5465,396.928 62.5,393.5 Z"/>
    </g>
    <g>
        <path style="opacity:0.538" fill="#FFF" d="M 428.5,414.5 C 429.376,414.369 430.043,414.702 430.5,415.5C 427.493,421.999 423.159,427.499 417.5,432C 415.359,432.884 413.693,432.384 412.5,430.5C 417.494,424.839 422.827,419.506 428.5,414.5 Z"/>
    </g>
    <g>
        <path style="opacity:0.574" fill="#FFF" d="M 81.5,415.5 C 87.198,415.94 91.698,418.606 95,423.5C 97.3928,426.952 99.2261,430.619 100.5,434.5C 99.325,434.719 98.325,434.386 97.5,433.5C 92.8158,427.982 87.6492,422.982 82,418.5C 81.5172,417.552 81.3505,416.552 81.5,415.5 Z"/>
    </g>
    <g>
        <path style="opacity:0.52" fill="#FFF" d="M 106.5,437.5 C 115.659,441.015 122.993,446.681 128.5,454.5C 125.984,454.245 123.65,453.411 121.5,452C 116.328,448.915 111.328,445.581 106.5,442C 105.272,440.51 105.272,439.01 106.5,437.5 Z"/>
    </g>
    <g>
        <path style="opacity:0.524" fill="#FFF" d="M 401.5,437.5 C 402.5,437.5 403.5,437.5 404.5,437.5C 403.909,440.614 402.242,443.114 399.5,445C 394.986,448.091 390.653,451.425 386.5,455C 385.552,455.483 384.552,455.649 383.5,455.5C 383.343,454.127 383.51,452.793 384,451.5C 389.447,446.213 395.28,441.547 401.5,437.5 Z"/>
    </g>
    <g>
        <path style="opacity:0.555" fill="#FFF" d="M 373.5,457.5 C 375.288,457.215 376.955,457.548 378.5,458.5C 378.291,459.086 377.957,459.586 377.5,460C 371.178,462.826 365.178,466.159 359.5,470C 357.866,470.494 356.199,470.66 354.5,470.5C 355.091,467.386 356.758,464.886 359.5,463C 364.159,460.842 368.825,459.009 373.5,457.5 Z"/>
    </g>
    <g>
        <path style="opacity:0.531" fill="#FFF" d="M 136.5,459.5 C 139.829,459.264 142.829,460.097 145.5,462C 149.713,464.6 153.713,467.433 157.5,470.5C 155.234,471.206 152.901,471.039 150.5,470C 144.847,468.177 139.847,465.344 135.5,461.5C 135.863,460.817 136.196,460.15 136.5,459.5 Z"/>
    </g>
    <g>
        <path style="opacity:0.56" fill="#FFF" d="M 161.5,471.5 C 171.451,470.925 179.784,474.258 186.5,481.5C 185.277,482.614 183.944,482.781 182.5,482C 176.048,479.072 169.382,476.738 162.5,475C 161.663,473.989 161.33,472.822 161.5,471.5 Z"/>
    </g>
    <g>
        <path style="opacity:0.54" fill="#FFF" d="M 347.5,471.5 C 349.942,471.354 350.609,472.187 349.5,474C 343.655,477.923 337.321,480.756 330.5,482.5C 329,482.547 328,481.881 327.5,480.5C 328.364,478.803 329.697,477.637 331.5,477C 336.979,475.23 342.313,473.397 347.5,471.5 Z"/>
    </g>
    <g>
        <path style="opacity:0.527" fill="#FFF" d="M 313.5,481.5 C 314.833,481.5 316.167,481.5 317.5,481.5C 317.64,483.124 316.973,484.29 315.5,485C 308.161,487.168 300.828,489.334 293.5,491.5C 291.404,490.38 291.07,488.88 292.5,487C 299.514,484.705 306.514,482.872 313.5,481.5 Z"/>
    </g>
    <g>
        <path style="opacity:0.544" fill="#FFF" d="M 193.5,482.5 C 202.349,482.67 211.015,484.003 219.5,486.5C 219.5,487.5 219.5,488.5 219.5,489.5C 210.811,488.687 202.145,487.687 193.5,486.5C 193.5,485.167 193.5,483.833 193.5,482.5 Z"/>
    </g>
    <g>
        <path style="opacity:0.542" fill="#FFF" d="M 263.5,487.5 C 268.511,487.334 273.511,487.501 278.5,488C 280.78,488.233 282.78,489.066 284.5,490.5C 283.271,491.281 281.938,491.781 280.5,492C 273.165,492.548 265.831,493.048 258.5,493.5C 258.238,492.022 258.571,490.689 259.5,489.5C 261.026,489.006 262.359,488.339 263.5,487.5 Z"/>
    </g>
    <g>
        <path style="opacity:0.525" fill="#FFF" d="M 231.5,488.5 C 238.833,489.167 246.167,489.833 253.5,490.5C 253.5,491.5 253.5,492.5 253.5,493.5C 245.792,494.757 238.125,494.59 230.5,493C 229.419,491.289 229.752,489.789 231.5,488.5 Z"/>
    </g>
</svg>
