<?xml version="1.0" standalone="no"?>
<!DOCTYPE svg PUBLIC "-//W3C//DTD SVG 20010904//EN"
 "http://www.w3.org/TR/2001/REC-SVG-20010904/DTD/svg10.dtd">
<svg version="1.0" xmlns="http://www.w3.org/2000/svg"
 width="512.000000pt" height="512.000000pt" viewBox="0 0 512.000000 512.000000"
 preserveAspectRatio="xMidYMid meet">
<metadata>
Created by potrace 1.16, written by Peter Selinger 2001-2019
</metadata>
<g transform="translate(0.000000,512.000000) scale(0.100000,-0.100000)"
fill="#000000" stroke="none">
<path d="M2895 4471 c-22 -10 -50 -28 -61 -39 -12 -11 -225 -244 -474 -516
l-452 -496 -342 0 c-308 0 -345 -2 -381 -19 -50 -22 -101 -79 -115 -128 -8
-26 -10 -249 -8 -728 3 -661 4 -691 22 -718 l19 -29 1049 1049 1048 1048 0
200 c0 213 -5 247 -45 305 -53 77 -176 110 -260 71z"/>
<path d="M2507 2612 l-1817 -1817 155 -155 155 -155 530 530 c324 324 533 526
538 520 272 -303 764 -836 785 -852 100 -75 251 -44 314 65 l28 47 3 945 2
945 718 717 717 718 -155 155 -155 155 -1818 -1818z"/>
</g>
</svg>
